<svg width="22" height="22" viewBox="0 0 22 22" fill="none" xmlns="http://www.w3.org/2000/svg">
<path fill-rule="evenodd" clip-rule="evenodd" d="M11.0938 5.82031C8.14062 5.82031 5.82031 8.14062 5.82031 11.0938C5.82031 14.0469 8.14062 16.3672 11.0938 16.3672C14.0469 16.3672 16.3672 14.0469 16.3672 11.0938C16.3672 8.14062 14.0469 5.82031 11.0938 5.82031ZM11.0938 0.546875C5.29297 0.546875 0.546875 5.29297 0.546875 11.0938C0.546875 16.8945 5.29297 21.6406 11.0938 21.6406C16.8945 21.6406 21.6406 16.8945 21.6406 11.0938C21.6406 5.29297 16.8945 0.546875 11.0938 0.546875ZM11.0938 19.5312C6.45312 19.5312 2.65625 15.7344 2.65625 11.0938C2.65625 6.45312 6.45312 2.65625 11.0938 2.65625C15.7344 2.65625 19.5312 6.45312 19.5312 11.0938C19.5312 15.7344 15.7344 19.5312 11.0938 19.5312Z" fill="#5669FF"/>
</svg>
